<?xml version="1.0" standalone="no"?><!DOCTYPE svg PUBLIC "-//W3C//DTD SVG 1.1//EN" "http://www.w3.org/Graphics/SVG/1.1/DTD/svg11.dtd"><svg class="icon" style="width: 5em; height: 5em;vertical-align: middle;fill: currentColor;overflow: hidden;" viewBox="0 0 1024 1024" version="1.1" xmlns="http://www.w3.org/2000/svg"><path d="M512.2 512m-448 0a448 448 0 1 0 896 0 448 448 0 1 0-896 0Z" fill="#FFFFFF" /><path d="M815.6 410.4c-22.7 24.4-51.8 50.2-77.9 67.6-7.7 5.1-15.7 9.7-23.7 14.3-15.3 8.9-30.9 17.2-46 26.5-9.8 6.1-9.3 19.2-3.7 31.4 7.2 15.7 13 32.3 16.9 49.1 3.5 15.4 6.6 32 4.5 47.3-3.3 23.7-5.9 50-18.2 69.4-21.1 33.4-63.2 56.8-106.4 33.3-21.1-11.4-39.9-27.3-59.7-41.3-0.9-0.7-2.3-1.5-2.5-2.4-3.3-16.6-14.5-27.2-27.2-37-7.9-6-14-14.5-22.3-19.7-5.3-3.4-14.1-5.4-19.7-3.5-26.6 9-52.8 19.4-78.9 29.8-29.6 11.7-59 23.9-88.5 35.8-6 2.4-12.3 4.1-18.5 6.2-0.8-1.2-1.7-2.3-2.5-3.5 9.5-8.9 18.6-18.4 28.7-26.6 27-21.9 54.4-43.2 81.5-64.9 6.2-4.9 12.1-10.3 17.9-15.6 7.2-6.6 5.7-18.5-3.4-21.9-18-6.6-34.5-14.8-47.7-29.4-3.4-3.7-10-5.1-15.4-6.4-30.1-6.8-55.3-22.8-76.2-44.2-13.3-13.7-23.4-30.6-14.5-52.7 5.7-14.2 7.2-30.1 11.1-45 7.2-27.5 21.7-51.4 42.3-70.4 13.1-12.1 28.7-22.4 44.9-29.7 15.8-7.1 26.8 1.5 29.8 18.9 1.9 11.3 2.1 23.1 5.3 34.1 6.8 23.7 22 41.9 42 55.9 12.6 8.8 17.7 7.7 24.9-6.3 13.2-25.8 35.2-42.6 58.6-57.8 11.9-7.7 22.7-2.8 29.8 6.4 15.1 19.4 24.5 41.7 26.7 66.7 1.5 16.7 3.9 33.3 6.2 52.2 12.3-7.3 24-14.6 36-21.3 39-22.1 77.8-44.4 117.1-65.8 40-21.8 80.6-42.7 120.9-63.9 2.4-1.3 5.2-1.7 7.9-2.5-0.1 34-0.1 53-0.1 86.9z m-533.5 21.3c4.1 11.1 12.8 17.2 16.1 25.9 2.6 6.9 13.2 9.8 14.5 17 1.7 9.5-1.5 3.8 3 15.2 2.5 6.3 13.6 12.5 19.8 14.9 7.8 3 11.3-1 14.5-6.7 8.7-15.4 9.6-27.4 16.8-43.7 1.8-4.1 3.3-3.6-4.5-13.3-7.8-9.7-7.7-15-22.5-10.7-13.4 3.9-27.2-12.1-42.6-14.1-9.8-1.2-14.6 1.5-24.8 3-0.1 1.8 2.1 5.1-5.9 6.6 6.2 2.4 12.2 4.6 15.6 5.9z m92.1 188.5c1.1 1.6 2.2 3.1 3.3 4.7 3.9-2.1 7.7-4.3 11.6-6.3 5.6-2.9 11.1-6 17-8.3 5.7-2.3 12.4-2.6 17.7-5.5 33.8-18.6 67.5-37.3 100.7-57 5.9-3.5 13.8-12.6 12.6-16.9-1.9-6.9-9.7-13.6-16.7-17.2-3.8-2-11 2.3-16.5 4.3-3.2 1.2-5.9 4-9.1 5.2-4.7 1.8-10.3 1.8-14.4 4.3-12 7.2-23.4 15.6-35.3 22.9-6.7 4.1-11.4 8.1-4.5 15.4-8.1 9.2-25.8 1.1-28.2 18.3 2.1 0.8 4.5 1.6 3.6 1.3-13.5 11.2-27.6 23-41.8 34.8z m-69.1-292c1 1 2 2 2.9 3.1 16.3-4.6 20.1-8.8 17.8-21.4-7.3 6.5-14 12.4-20.7 18.3z m194.2 244.4c0.7 1.3 1.4 2.6 2 3.8 9.2-6.1 18.4-12.2 27.6-18.2-0.8-1.3-1.7-2.7-2.5-4-9 6.1-18.1 12.3-27.1 18.4z"  /><path d="M282.1 431.7c-3.4-1.3-9.4-3.5-15.4-5.8 0.1-1.8 0.2-3.7 0.2-5.5 10.2-1.5 20.7-5.3 30.5-4.1 15.4 1.9 23.1 17.8 36.4 13.9 14.7-4.3 9.8-4.3 17.6 5.3 7.8 9.7 6.8 6.6 12.1 20 6.5 16.5-4.8 27.2-13.5 42.6-3.2 5.7-6.7 9.6-14.5 6.7-6.3-2.4-5.3-12.6-12-13.8-10.6-2-11-5-12.7-14.5-1.3-7.2-10.1-11.8-12.7-18.8-3.2-8.8-11.9-14.9-16-26zM374.2 620.2c14.1-11.8 28.3-23.7 41.6-34.8 0.9 0.3-1.5-0.5-3.6-1.3 2.5-17.2 20.2-9 28.2-18.3-6.9-7.3-2.2-11.2 4.5-15.4 12-7.3 23.3-15.7 35.3-22.9 4.2-2.5 9.7-2.5 14.4-4.3 3.2-1.2 5.9-4 9.1-5.2 5.5-2 12.7-6.2 16.5-4.3 7 3.6 14.8 10.3 16.7 17.2 1.2 4.3-6.7 13.4-12.6 16.9-33.2 19.6-66.9 38.4-100.7 57-5.3 2.9-11.9 3.3-17.7 5.5-5.8 2.3-11.4 5.4-17 8.3-3.9 2-7.7 4.2-11.6 6.3-0.8-1.5-2-3.1-3.1-4.7zM305.1 328.2c6.7-5.9 13.3-11.8 20.7-18.4 2.3 12.6-1.5 16.8-17.8 21.4-0.9-1-1.9-2-2.9-3zM499.3 572.6c9-6.1 18.1-12.3 27.1-18.4 0.8 1.3 1.7 2.7 2.5 4-9.2 6.1-18.4 12.2-27.6 18.2-0.6-1.2-1.3-2.5-2-3.8zM663.2 523.6l-39.3 20.8s20.2-4 47.6 42 17 7.3 17 7.3l-25.3-70.1z" fill="#FFFFFF" /><path d="M623.9 544.4s40-18.9 50.3 9.7c10.3 28.7 9.5 56.9 9.5 56.9l-59.8-66.6z"  /><path d="M675.6 602.1s2.2 71.8-11.1 93.4c-13.3 21.6-20.7 24.7-20.7 24.7l31.8-118.1zM513.1 405.2s15.3 52.2 10.6 80.4c-4.8 28.1-10.6-80.4-10.6-80.4z" fill="#FFFFFF" /></svg>